<svg width="49" height="48" viewBox="0 0 49 48" fill="none" xmlns="http://www.w3.org/2000/svg">
<path fill-rule="evenodd" clip-rule="evenodd" d="M30.4984 12C30.949 11.9983 31.3954 12.0918 31.8121 12.2753C32.2293 12.459 32.6084 12.7293 32.9275 13.0706C33.2465 13.4118 33.4993 13.8172 33.6711 14.2634C33.8426 14.709 33.9301 15.1864 33.9285 15.6682L33.9285 15.6704L33.0714 15.6666H33.9285V15.6682V28.4996C33.9285 29.0058 33.5447 29.4162 33.0714 29.4162C32.598 29.4162 32.2143 29.0058 32.2143 28.4996V15.6666L32.2143 15.6627C32.2152 15.4222 32.1716 15.1839 32.086 14.9615C32.0003 14.739 31.8744 14.537 31.7153 14.3669C31.5563 14.1968 31.3674 14.0621 31.1594 13.9705C30.9514 13.8789 30.7286 13.8323 30.5037 13.8333L30.5001 13.8333H15.9294C15.456 13.8333 15.0723 13.4229 15.0723 12.9167C15.0723 12.4104 15.456 12 15.9294 12H30.4984ZM30.4984 12L30.4965 12L30.5001 12.9167V12H30.4984Z" fill="#E1E1E6"/>
<path fill-rule="evenodd" clip-rule="evenodd" d="M21.9279 20.2526C21.9279 19.7463 22.3116 19.3359 22.785 19.3359H29.6418C30.1151 19.3359 30.4989 19.7463 30.4989 20.2526C30.4989 20.7588 30.1151 21.1692 29.6418 21.1692H22.785C22.3116 21.1692 21.9279 20.7588 21.9279 20.2526Z" fill="#E1E1E6"/>
<path fill-rule="evenodd" clip-rule="evenodd" d="M21.9279 23.9205C21.9279 23.4143 22.3116 23.0039 22.785 23.0039H29.6418C30.1151 23.0039 30.4989 23.4143 30.4989 23.9205C30.4989 24.4268 30.1151 24.8372 29.6418 24.8372H22.785C22.3116 24.8372 21.9279 24.4268 21.9279 23.9205Z" fill="#E1E1E6"/>
<path fill-rule="evenodd" clip-rule="evenodd" d="M16.1319 13.8465C15.8561 13.8112 15.5764 13.8481 15.3169 13.9541C15.0574 14.0601 14.8258 14.2319 14.6422 14.4548C14.4586 14.6777 14.3283 14.945 14.2627 15.2337C14.1971 15.5223 14.198 15.8237 14.2655 16.1119C14.3329 16.4001 14.4649 16.6664 14.6499 16.888C14.9652 17.2656 14.9346 17.845 14.5816 18.1823C14.2285 18.5195 13.6867 18.4868 13.3714 18.1092C13.0013 17.6661 12.7375 17.1334 12.6026 16.557C12.4677 15.9807 12.4658 15.3779 12.5971 14.8006C12.7283 14.2232 12.9888 13.6887 13.356 13.2429C13.7233 12.7971 14.1864 12.4534 14.7054 12.2415C15.2244 12.0295 15.7837 11.9556 16.3354 12.0261C16.887 12.0967 17.4143 12.3095 17.872 12.6463C18.3296 12.9832 18.7039 13.4339 18.9625 13.9597C19.2212 14.4855 19.3565 15.0707 19.3568 15.6648V30.3311C19.3569 30.6281 19.4246 30.9207 19.5539 31.1836C19.6832 31.4466 19.8704 31.6719 20.0992 31.8403C20.328 32.0087 20.5917 32.1152 20.8675 32.1504C21.1433 32.1857 21.423 32.1487 21.6825 32.0428C21.942 31.9368 22.1735 31.7649 22.3572 31.5421C22.5408 31.3192 22.671 31.0519 22.7367 30.7632C22.8023 30.4745 22.8013 30.1732 22.7339 29.885C22.6664 29.5968 22.5345 29.3305 22.3495 29.1089C22.1244 28.8394 22.0684 28.4536 22.2065 28.1238C22.3445 27.7939 22.6509 27.5816 22.9887 27.5816H34.9881C35.232 27.5816 35.4644 27.6928 35.627 27.8872C36.0683 28.4149 36.3573 29.0679 36.4592 29.7674C36.561 30.4669 36.4713 31.183 36.201 31.8292C35.9306 32.4754 35.491 33.0241 34.9354 33.409C34.3799 33.7938 33.7322 33.9984 33.0704 33.9981H21.071C21.052 33.9981 21.0331 33.9975 21.0144 33.9962C20.8975 33.9941 20.7806 33.9856 20.664 33.9707C20.1124 33.9002 19.5851 33.6874 19.1274 33.3505C18.6698 33.0137 18.2955 32.563 18.0368 32.0372C17.7782 31.5114 17.6429 30.9262 17.6426 30.3321V15.6658C17.6424 15.3687 17.5748 15.0761 17.4455 14.8132C17.3161 14.5503 17.129 14.325 16.9002 14.1566C16.6714 13.9881 16.4077 13.8817 16.1319 13.8465ZM24.0393 32.1648H33.0704C33.4014 32.165 33.7257 32.0627 34.0035 31.8703C34.2813 31.6778 34.5011 31.4035 34.6363 31.0804C34.7715 30.7573 34.8163 30.3992 34.7654 30.0495C34.7327 29.8249 34.6614 29.6099 34.5561 29.4149H24.3909C24.3929 29.4232 24.3948 29.4315 24.3968 29.4398C24.5317 30.0162 24.5336 30.619 24.4023 31.1963C24.3248 31.5372 24.2023 31.8632 24.0393 32.1648Z" fill="#E1E1E6"/>
</svg>
